<svg width="72" height="62" viewBox="0 0 72 62" fill="none" xmlns="http://www.w3.org/2000/svg">
<path d="M61.3802 43.5599L27.7202 30.5999L61.3802 17.6399C64.0802 16.5599 65.5202 13.4999 64.4402 10.6199C63.3602 7.91994 60.3002 6.47994 57.4202 7.55994L35 16L10.6202 25.5599C8.64019 26.2799 7.2002 28.4399 7.2002 30.5999C7.2002 32.7599 8.64019 34.9199 10.6202 35.6399L35 43.5599L57.4202 53.6399C58.1402 53.8199 58.6802 53.9999 59.4002 53.9999C61.5602 53.9999 63.5402 52.7399 64.4402 50.5799C65.5202 47.6999 64.0802 44.6399 61.3802 43.5599Z" fill="#FAFAFA"/>
<path d="M12.6 18C10.9453 18 9.30689 18.3259 7.77819 18.9591C6.24949 19.5923 4.86047 20.5204 3.69045 21.6905C2.52044 22.8605 1.59233 24.2495 0.959118 25.7782C0.325909 27.3069 0 28.9453 0 30.6C0 32.2547 0.325909 33.8931 0.959118 35.4218C1.59233 36.9505 2.52044 38.3395 3.69045 39.5095C4.86047 40.6796 6.24949 41.6077 7.77819 42.2409C9.30689 42.8741 10.9453 43.2 12.6 43.2C14.2547 43.2 15.8931 42.8741 17.4218 42.2409C18.9505 41.6077 20.3395 40.6796 21.5095 39.5095C22.6796 38.3395 23.6077 36.9505 24.2409 35.4218C24.8741 33.8931 25.2 32.2547 25.2 30.6C25.2 28.9453 24.8741 27.3069 24.2409 25.7782C23.6077 24.2495 22.6796 22.8605 21.5095 21.6905C20.3395 20.5204 18.9505 19.5923 17.4218 18.9591C15.8931 18.3259 14.2547 18 12.6 18ZM59.4 0C56.0583 0 52.8534 1.3275 50.4905 3.69046C48.1275 6.05341 46.8 9.25827 46.8 12.6C46.8 15.9417 48.1275 19.1466 50.4905 21.5095C52.8534 23.8725 56.0583 25.2 59.4 25.2C62.7417 25.2 65.9466 23.8725 68.3095 21.5095C70.6725 19.1466 72 15.9417 72 12.6C72 9.25827 70.6725 6.05341 68.3095 3.69046C65.9466 1.3275 62.7417 0 59.4 0ZM59.4 36C56.0583 36 52.8534 37.3275 50.4905 39.6905C48.1275 42.0534 46.8 45.2583 46.8 48.6C46.8 51.9417 48.1275 55.1466 50.4905 57.5096C52.8534 59.8725 56.0583 61.2 59.4 61.2C62.7417 61.2 65.9466 59.8725 68.3095 57.5096C70.6725 55.1466 72 51.9417 72 48.6C72 45.2583 70.6725 42.0534 68.3095 39.6905C65.9466 37.3275 62.7417 36 59.4 36Z" fill="#FAFAFA"/>
</svg>
