<svg width="42" height="35" viewBox="0 0 42 35" fill="none" xmlns="http://www.w3.org/2000/svg">
<g opacity="0.8">
<path d="M35.1032 24.9117L15.8532 17.5L35.1032 10.0882C36.6473 9.47057 37.4709 7.72057 36.8532 6.07351C36.2356 4.52939 34.4856 3.70586 32.8385 4.32351L20.0165 9.15034L6.0738 14.6176C4.94145 15.0294 4.11792 16.2647 4.11792 17.5C4.11792 18.7353 4.94145 19.9706 6.0738 20.3823L20.0165 24.9117L32.8385 30.6764C33.2503 30.7794 33.5591 30.8823 33.9709 30.8823C35.2062 30.8823 36.3385 30.1617 36.8532 28.9264C37.4709 27.2794 36.6473 25.5294 35.1032 24.9117Z" fill="#783CFA"/>
<path d="M7.20588 10.2941C6.25959 10.2941 5.32257 10.4805 4.44831 10.8426C3.57405 11.2048 2.77968 11.7355 2.11055 12.4047C1.44143 13.0738 0.910645 13.8682 0.548515 14.7424C0.186386 15.6167 0 16.5537 0 17.5C0 18.4463 0.186386 19.3833 0.548515 20.2576C0.910645 21.1318 1.44143 21.9262 2.11055 22.5953C2.77968 23.2645 3.57405 23.7952 4.44831 24.1574C5.32257 24.5195 6.25959 24.7059 7.20588 24.7059C8.15217 24.7059 9.0892 24.5195 9.96346 24.1574C10.8377 23.7952 11.6321 23.2645 12.3012 22.5953C12.9703 21.9262 13.5011 21.1318 13.8633 20.2576C14.2254 19.3833 14.4118 18.4463 14.4118 17.5C14.4118 16.5537 14.2254 15.6167 13.8633 14.7424C13.5011 13.8682 12.9703 13.0738 12.3012 12.4047C11.6321 11.7355 10.8377 11.2048 9.96346 10.8426C9.0892 10.4805 8.15217 10.2941 7.20588 10.2941ZM33.9706 0C32.0595 0 30.2266 0.759189 28.8753 2.11055C27.5239 3.46192 26.7647 5.29476 26.7647 7.20588C26.7647 9.117 27.5239 10.9498 28.8753 12.3012C30.2266 13.6526 32.0595 14.4118 33.9706 14.4118C35.8817 14.4118 37.7146 13.6526 39.0659 12.3012C40.4173 10.9498 41.1765 9.117 41.1765 7.20588C41.1765 5.29476 40.4173 3.46192 39.0659 2.11055C37.7146 0.759189 35.8817 0 33.9706 0ZM33.9706 20.5882C32.0595 20.5882 30.2266 21.3474 28.8753 22.6988C27.5239 24.0502 26.7647 25.883 26.7647 27.7941C26.7647 29.7052 27.5239 31.5381 28.8753 32.8895C30.2266 34.2408 32.0595 35 33.9706 35C35.8817 35 37.7146 34.2408 39.0659 32.8895C40.4173 31.5381 41.1765 29.7052 41.1765 27.7941C41.1765 25.883 40.4173 24.0502 39.0659 22.6988C37.7146 21.3474 35.8817 20.5882 33.9706 20.5882Z" fill="#783CFA"/>
</g>
</svg>
