<svg width="221" height="67" viewBox="0 0 221 67" fill="none" xmlns="http://www.w3.org/2000/svg">
<path d="M75.485 46.545C75.485 47.6817 75.5767 48.5067 75.76 49.02C75.9433 49.5333 76.2917 49.8817 76.805 50.065C77.355 50.2483 78.2167 50.34 79.39 50.34C79.5 50.34 79.555 50.45 79.555 50.67C79.555 50.89 79.5 51 79.39 51C78.18 51 77.2267 50.9817 76.53 50.945L72.35 50.89L68.28 50.945C67.5467 50.9817 66.5567 51 65.31 51C65.2367 51 65.2 50.89 65.2 50.67C65.2 50.45 65.2367 50.34 65.31 50.34C66.4833 50.34 67.345 50.2483 67.895 50.065C68.445 49.8817 68.8117 49.5333 68.995 49.02C69.215 48.47 69.325 47.645 69.325 46.545V21.08C69.325 19.98 69.215 19.1733 68.995 18.66C68.8117 18.1467 68.445 17.7983 67.895 17.615C67.345 17.395 66.4833 17.285 65.31 17.285C65.2367 17.285 65.2 17.175 65.2 16.955C65.2 16.735 65.2367 16.625 65.31 16.625L68.28 16.68C69.9667 16.7533 71.3233 16.79 72.35 16.79C73.4867 16.79 74.8983 16.7533 76.585 16.68L79.39 16.625C79.5 16.625 79.555 16.735 79.555 16.955C79.555 17.175 79.5 17.285 79.39 17.285C78.2533 17.285 77.41 17.395 76.86 17.615C76.31 17.835 75.9433 18.22 75.76 18.77C75.5767 19.2833 75.485 20.09 75.485 21.19V46.545ZM123.544 50.34C123.69 50.34 123.764 50.45 123.764 50.67C123.764 50.89 123.69 51 123.544 51C122.59 51 121.839 50.9817 121.289 50.945L117.989 50.89L114.799 50.945C114.212 50.9817 113.442 51 112.489 51C112.379 51 112.324 50.89 112.324 50.67C112.324 50.45 112.379 50.34 112.489 50.34C113.625 50.34 114.395 50.0833 114.799 49.57C115.239 49.02 115.459 48.0117 115.459 46.545V38.625C115.459 36.645 115.11 35.1783 114.414 34.225C113.754 33.2717 112.727 32.795 111.334 32.795C110.38 32.795 109.445 32.9967 108.529 33.4C107.612 33.8033 106.824 34.3533 106.164 35.05V35.38V46.545C106.164 48.0117 106.365 49.02 106.769 49.57C107.209 50.0833 107.997 50.34 109.134 50.34C109.28 50.34 109.354 50.45 109.354 50.67C109.354 50.89 109.28 51 109.134 51C108.18 51 107.429 50.9817 106.879 50.945L103.579 50.89L100.389 50.945C99.8022 50.9817 99.0322 51 98.0788 51C97.9688 51 97.9138 50.89 97.9138 50.67C97.9138 50.45 97.9688 50.34 98.0788 50.34C99.2155 50.34 99.9855 50.0833 100.389 49.57C100.829 49.02 101.049 48.0117 101.049 46.545V38.625C101.049 36.645 100.7 35.1783 100.004 34.225C99.3438 33.2717 98.3172 32.795 96.9238 32.795C96.0438 32.795 95.1638 32.9783 94.2838 33.345C93.4405 33.675 92.6888 34.1517 92.0288 34.775V46.545C92.0288 48.0117 92.2305 49.02 92.6338 49.57C93.0738 50.0833 93.8622 50.34 94.9988 50.34C95.1088 50.34 95.1638 50.45 95.1638 50.67C95.1638 50.89 95.1088 51 94.9988 51C94.0455 51 93.2938 50.9817 92.7438 50.945L89.4438 50.89L86.1988 50.945C85.6488 50.9817 84.8972 51 83.9438 51C83.8338 51 83.7788 50.89 83.7788 50.67C83.7788 50.45 83.8338 50.34 83.9438 50.34C85.0805 50.34 85.8505 50.0833 86.2538 49.57C86.6572 49.02 86.8588 48.0117 86.8588 46.545V36.205C86.8588 35.0683 86.7122 34.2433 86.4188 33.73C86.1622 33.18 85.7405 32.905 85.1538 32.905C84.5305 32.905 83.6505 33.1617 82.5138 33.675H82.4038C82.2938 33.675 82.2022 33.5833 82.1288 33.4C82.0922 33.2167 82.1105 33.1067 82.1838 33.07L89.8288 29.33C90.0488 29.2567 90.1772 29.22 90.2138 29.22C90.6172 29.22 91.0022 29.6233 91.3688 30.43C91.7355 31.2 91.9555 32.245 92.0288 33.565C94.5222 30.595 97.1988 29.11 100.059 29.11C101.782 29.11 103.157 29.5317 104.184 30.375C105.21 31.2183 105.834 32.4283 106.054 34.005C108.584 30.7417 111.389 29.11 114.469 29.11C116.449 29.11 117.952 29.6783 118.979 30.815C120.042 31.9517 120.574 33.675 120.574 35.985V46.545C120.574 48.0117 120.775 49.02 121.179 49.57C121.619 50.0833 122.407 50.34 123.544 50.34ZM138.908 51.715C137.111 51.715 135.534 51.5133 134.178 51.11V61.67C134.178 62.77 134.288 63.5767 134.508 64.09C134.764 64.6033 135.223 64.9517 135.883 65.135C136.579 65.355 137.643 65.465 139.073 65.465C139.183 65.465 139.238 65.575 139.238 65.795C139.238 66.015 139.183 66.125 139.073 66.125C137.716 66.125 136.653 66.1067 135.883 66.07L131.538 66.015L128.293 66.07C127.743 66.1067 126.973 66.125 125.983 66.125C125.873 66.125 125.818 66.015 125.818 65.795C125.818 65.575 125.873 65.465 125.983 65.465C126.863 65.465 127.504 65.355 127.908 65.135C128.348 64.9517 128.641 64.6033 128.788 64.09C128.971 63.5767 129.063 62.77 129.063 61.67V36.205C129.063 35.0317 128.934 34.1883 128.678 33.675C128.421 33.1617 127.963 32.905 127.303 32.905C126.716 32.905 125.873 33.1617 124.773 33.675H124.663C124.553 33.675 124.461 33.5833 124.388 33.4C124.278 33.2167 124.259 33.1067 124.333 33.07L132.143 29.275C132.216 29.2383 132.308 29.22 132.418 29.22C132.784 29.22 133.114 29.5317 133.408 30.155C133.738 30.7783 133.958 31.6217 134.068 32.685C136.744 30.265 139.494 29.055 142.318 29.055C143.858 29.055 145.288 29.4583 146.608 30.265C147.964 31.0717 149.046 32.245 149.853 33.785C150.659 35.325 151.063 37.1217 151.063 39.175C151.063 42.1083 150.458 44.5283 149.248 46.435C148.038 48.305 146.498 49.6617 144.628 50.505C142.794 51.3117 140.888 51.715 138.908 51.715ZM138.688 32.135C137.038 32.135 135.534 32.7217 134.178 33.895V34.335V47.59C134.984 48.5067 135.828 49.2033 136.708 49.68C137.588 50.12 138.669 50.34 139.953 50.34C143.656 50.34 145.508 47.1867 145.508 40.88C145.508 38.0933 144.848 35.9483 143.528 34.445C142.244 32.905 140.631 32.135 138.688 32.135ZM167.106 51.715C165.309 51.715 163.733 51.5133 162.376 51.11V61.67C162.376 62.77 162.486 63.5767 162.706 64.09C162.963 64.6033 163.421 64.9517 164.081 65.135C164.778 65.355 165.841 65.465 167.271 65.465C167.381 65.465 167.436 65.575 167.436 65.795C167.436 66.015 167.381 66.125 167.271 66.125C165.914 66.125 164.851 66.1067 164.081 66.07L159.736 66.015L156.491 66.07C155.941 66.1067 155.171 66.125 154.181 66.125C154.071 66.125 154.016 66.015 154.016 65.795C154.016 65.575 154.071 65.465 154.181 65.465C155.061 65.465 155.703 65.355 156.106 65.135C156.546 64.9517 156.839 64.6033 156.986 64.09C157.169 63.5767 157.261 62.77 157.261 61.67V36.205C157.261 35.0317 157.133 34.1883 156.876 33.675C156.619 33.1617 156.161 32.905 155.501 32.905C154.914 32.905 154.071 33.1617 152.971 33.675H152.861C152.751 33.675 152.659 33.5833 152.586 33.4C152.476 33.2167 152.458 33.1067 152.531 33.07L160.341 29.275C160.414 29.2383 160.506 29.22 160.616 29.22C160.983 29.22 161.313 29.5317 161.606 30.155C161.936 30.7783 162.156 31.6217 162.266 32.685C164.943 30.265 167.693 29.055 170.516 29.055C172.056 29.055 173.486 29.4583 174.806 30.265C176.163 31.0717 177.244 32.245 178.051 33.785C178.858 35.325 179.261 37.1217 179.261 39.175C179.261 42.1083 178.656 44.5283 177.446 46.435C176.236 48.305 174.696 49.6617 172.826 50.505C170.993 51.3117 169.086 51.715 167.106 51.715ZM166.886 32.135C165.236 32.135 163.733 32.7217 162.376 33.895V34.335V47.59C163.183 48.5067 164.026 49.2033 164.906 49.68C165.786 50.12 166.868 50.34 168.151 50.34C171.854 50.34 173.706 47.1867 173.706 40.88C173.706 38.0933 173.046 35.9483 171.726 34.445C170.443 32.905 168.829 32.135 166.886 32.135ZM182.874 51C182.801 51 182.764 50.89 182.764 50.67C182.764 50.45 182.801 50.34 182.874 50.34C184.011 50.34 184.781 50.0833 185.184 49.57C185.624 49.02 185.844 48.0117 185.844 46.545L185.899 18.605C185.899 17.3217 185.771 16.405 185.514 15.855C185.294 15.305 184.891 15.03 184.304 15.03C183.828 15.03 183.131 15.2317 182.214 15.635H182.159C182.049 15.635 181.939 15.5433 181.829 15.36C181.756 15.14 181.756 15.0117 181.829 14.975L189.914 11.18L190.134 11.125C190.318 11.125 190.519 11.2167 190.739 11.4C190.959 11.5467 191.069 11.6933 191.069 11.84V46.545C191.069 48.0117 191.271 49.02 191.674 49.57C192.078 50.0833 192.848 50.34 193.984 50.34C194.131 50.34 194.204 50.45 194.204 50.67C194.204 50.89 194.131 51 193.984 51C193.068 51 192.334 50.9817 191.784 50.945L188.429 50.89L185.129 50.945C184.579 50.9817 183.828 51 182.874 51ZM219.921 29.77C219.994 29.77 220.031 29.88 220.031 30.1C220.031 30.32 219.994 30.43 219.921 30.43C218.748 30.43 217.721 30.9433 216.841 31.97C215.998 32.96 215.228 34.4083 214.531 36.315L208.426 52.54C206.483 57.6733 204.613 61.2667 202.816 63.32C201.056 65.41 199.094 66.455 196.931 66.455C195.831 66.455 194.988 66.2167 194.401 65.74C193.814 65.3 193.521 64.64 193.521 63.76C193.521 62.9167 193.778 62.275 194.291 61.835C194.804 61.395 195.428 61.175 196.161 61.175C196.564 61.175 196.894 61.23 197.151 61.34C197.444 61.45 197.793 61.6333 198.196 61.89C198.893 62.3667 199.553 62.605 200.176 62.605C201.019 62.605 201.771 62.275 202.431 61.615C203.128 60.9917 203.843 59.9283 204.576 58.425C205.309 56.9583 206.189 54.85 207.216 52.1L198.416 34.335C197.609 32.7583 196.968 31.7133 196.491 31.2C196.051 30.6867 195.501 30.43 194.841 30.43C194.731 30.43 194.676 30.32 194.676 30.1C194.676 29.88 194.731 29.77 194.841 29.77C195.868 29.77 196.656 29.7883 197.206 29.825L199.516 29.88L203.311 29.825C203.898 29.7883 204.686 29.77 205.676 29.77C205.786 29.77 205.841 29.88 205.841 30.1C205.841 30.32 205.786 30.43 205.676 30.43C204.723 30.43 204.026 30.5217 203.586 30.705C203.146 30.8517 202.926 31.1083 202.926 31.475C202.926 31.7683 203.036 32.135 203.256 32.575L209.746 45.83L213.046 36.26C213.376 35.3067 213.541 34.445 213.541 33.675C213.541 32.6483 213.248 31.86 212.661 31.31C212.074 30.7233 211.231 30.43 210.131 30.43C210.058 30.43 210.021 30.32 210.021 30.1C210.021 29.88 210.058 29.77 210.131 29.77C211.121 29.77 211.873 29.7883 212.386 29.825L215.686 29.88L217.886 29.825C218.326 29.7883 219.004 29.77 219.921 29.77Z" fill="#783CFA"/>
<path d="M42.6251 43.25L19.2501 34.25L42.6251 25.25C44.5001 24.5 45.5001 22.375 44.7501 20.375C44.0001 18.5 41.8751 17.5 39.8751 18.25L24.3055 24.1111L7.37512 30.75C6.00012 31.25 5.00012 32.75 5.00012 34.25C5.00012 35.75 6.00012 37.25 7.37512 37.75L24.3055 43.25L39.8751 50.25C40.3751 50.375 40.7501 50.5 41.2501 50.5C42.7501 50.5 44.1251 49.625 44.7501 48.125C45.5001 46.125 44.5001 44 42.6251 43.25Z" fill="#783CFA"/>
<path d="M8.75 25.5C7.60093 25.5 6.46312 25.7263 5.40152 26.1661C4.33992 26.6058 3.37533 27.2503 2.56282 28.0628C1.7503 28.8753 1.10578 29.8399 0.666054 30.9015C0.226326 31.9631 0 33.1009 0 34.25C0 35.3991 0.226326 36.5369 0.666054 37.5985C1.10578 38.6601 1.7503 39.6247 2.56282 40.4372C3.37533 41.2497 4.33992 41.8942 5.40152 42.3339C6.46312 42.7737 7.60093 43 8.75 43C9.89907 43 11.0369 42.7737 12.0985 42.3339C13.1601 41.8942 14.1247 41.2497 14.9372 40.4372C15.7497 39.6247 16.3942 38.6601 16.8339 37.5985C17.2737 36.5369 17.5 35.3991 17.5 34.25C17.5 33.1009 17.2737 31.9631 16.8339 30.9015C16.3942 29.8399 15.7497 28.8753 14.9372 28.0628C14.1247 27.2503 13.1601 26.6058 12.0985 26.1661C11.0369 25.7263 9.89907 25.5 8.75 25.5ZM41.25 13C38.9294 13 36.7038 13.9219 35.0628 15.5628C33.4219 17.2038 32.5 19.4294 32.5 21.75C32.5 24.0706 33.4219 26.2962 35.0628 27.9372C36.7038 29.5781 38.9294 30.5 41.25 30.5C43.5706 30.5 45.7962 29.5781 47.4372 27.9372C49.0781 26.2962 50 24.0706 50 21.75C50 19.4294 49.0781 17.2038 47.4372 15.5628C45.7962 13.9219 43.5706 13 41.25 13V13ZM41.25 38C38.9294 38 36.7038 38.9219 35.0628 40.5628C33.4219 42.2038 32.5 44.4294 32.5 46.75C32.5 49.0706 33.4219 51.2962 35.0628 52.9372C36.7038 54.5781 38.9294 55.5 41.25 55.5C43.5706 55.5 45.7962 54.5781 47.4372 52.9372C49.0781 51.2962 50 49.0706 50 46.75C50 44.4294 49.0781 42.2038 47.4372 40.5628C45.7962 38.9219 43.5706 38 41.25 38V38Z" fill="#783CFA"/>
</svg>
