<svg width="1023" height="293" viewBox="0 0 1023 293" fill="none" xmlns="http://www.w3.org/2000/svg">
<path d="M356.781 54.2656V232H326.142V54.2656H356.781ZM428.856 126.775V232H399.438V99.9199H427.147L428.856 126.775ZM424.096 161.077L414.086 160.955C414.086 151.84 415.225 143.418 417.504 135.687C419.783 127.955 423.119 121.242 427.514 115.545C431.908 109.767 437.361 105.332 443.871 102.239C450.463 99.0654 458.072 97.4785 466.698 97.4785C472.72 97.4785 478.214 98.3737 483.178 100.164C488.223 101.873 492.577 104.599 496.239 108.343C499.983 112.086 502.831 116.888 504.784 122.747C506.819 128.606 507.836 135.687 507.836 143.987V232H478.417V146.551C478.417 140.122 477.44 135.076 475.487 131.414C473.616 127.752 470.889 125.148 467.309 123.602C463.809 121.974 459.618 121.16 454.735 121.16C449.201 121.16 444.481 122.218 440.575 124.334C436.75 126.45 433.617 129.339 431.176 133.001C428.734 136.663 426.944 140.895 425.805 145.696C424.665 150.498 424.096 155.625 424.096 161.077ZM506.005 153.265L492.211 156.316C492.211 148.341 493.31 140.813 495.507 133.733C497.785 126.572 501.081 120.306 505.395 114.935C509.789 109.482 515.201 105.21 521.63 102.117C528.059 99.0247 535.424 97.4785 543.725 97.4785C550.479 97.4785 556.501 98.4144 561.791 100.286C567.162 102.076 571.719 104.925 575.463 108.831C579.206 112.737 582.055 117.824 584.008 124.09C585.961 130.275 586.938 137.762 586.938 146.551V232H557.396V146.429C557.396 139.756 556.42 134.588 554.467 130.926C552.595 127.264 549.91 124.741 546.41 123.357C542.911 121.893 538.72 121.16 533.837 121.16C529.28 121.16 525.251 122.015 521.752 123.724C518.334 125.351 515.445 127.671 513.085 130.682C510.725 133.611 508.935 136.989 507.714 140.813C506.575 144.638 506.005 148.789 506.005 153.265ZM654.252 125.311V282.781H624.833V99.9199H651.933L654.252 125.311ZM740.312 164.739V167.303C740.312 176.906 739.172 185.817 736.894 194.036C734.696 202.174 731.4 209.295 727.006 215.398C722.693 221.421 717.362 226.1 711.015 229.437C704.667 232.773 697.343 234.441 689.042 234.441C680.823 234.441 673.62 232.936 667.436 229.925C661.332 226.832 656.164 222.479 651.933 216.863C647.701 211.248 644.283 204.656 641.679 197.088C639.156 189.438 637.366 181.056 636.308 171.941V162.054C637.366 152.369 639.156 143.58 641.679 135.687C644.283 127.793 647.701 120.997 651.933 115.301C656.164 109.604 661.332 105.21 667.436 102.117C673.539 99.0247 680.66 97.4785 688.798 97.4785C697.099 97.4785 704.464 99.1061 710.893 102.361C717.322 105.535 722.733 110.092 727.128 116.033C731.522 121.893 734.818 128.973 737.016 137.273C739.213 145.493 740.312 154.648 740.312 164.739ZM710.893 167.303V164.739C710.893 158.636 710.323 152.98 709.184 147.771C708.044 142.482 706.254 137.843 703.812 133.855C701.371 129.868 698.238 126.775 694.413 124.578C690.67 122.299 686.153 121.16 680.863 121.16C675.655 121.16 671.179 122.055 667.436 123.846C663.692 125.555 660.559 127.955 658.036 131.048C655.513 134.14 653.56 137.762 652.177 141.912C650.793 145.981 649.817 150.416 649.247 155.218V178.899C650.224 184.759 651.892 190.13 654.252 195.013C656.612 199.896 659.949 203.802 664.262 206.731C668.656 209.58 674.271 211.004 681.107 211.004C686.397 211.004 690.914 209.865 694.657 207.586C698.401 205.307 701.452 202.174 703.812 198.187C706.254 194.118 708.044 189.438 709.184 184.148C710.323 178.859 710.893 173.243 710.893 167.303ZM804.33 44.5V232H774.789V44.5H804.33ZM875.551 44.5V232H846.01V44.5H875.551ZM953.607 217.596L989.496 99.9199H1020.99L968.012 252.142C966.791 255.397 965.204 258.937 963.251 262.762C961.298 266.587 958.734 270.208 955.561 273.626C952.468 277.125 948.603 279.933 943.964 282.049C939.325 284.246 933.71 285.345 927.118 285.345C924.514 285.345 921.991 285.101 919.55 284.612C917.19 284.205 914.952 283.758 912.836 283.27L912.714 260.809C913.528 260.89 914.504 260.971 915.644 261.053C916.864 261.134 917.841 261.175 918.573 261.175C923.456 261.175 927.525 260.564 930.78 259.344C934.035 258.204 936.68 256.333 938.715 253.729C940.831 251.124 942.621 247.625 944.086 243.23L953.607 217.596ZM933.344 99.9199L964.716 198.797L969.965 229.803L949.579 235.052L901.605 99.9199H933.344Z" fill="#783CFA"/>
<path d="M200 21C172.656 21 150.332 43.1094 150 70.375L79.5312 105.688C71.25 99.5938 61.0352 96 50 96C22.4414 96 0 118.441 0 146C0 173.559 22.4414 196 50 196C61.0352 196 71.25 192.406 79.5312 186.312L150 221.625C150.332 248.891 172.656 271 200 271C227.559 271 250 248.559 250 221C250 193.441 227.559 171 200 171C189.375 171 179.512 174.379 171.406 180.062L103.125 146L171.406 111.938C179.512 117.621 189.375 121 200 121C227.559 121 250 98.5586 250 71C250 43.4414 227.559 21 200 21ZM200 31C222.148 31 240 48.8516 240 71C240 93.1484 222.148 111 200 111C191.816 111 184.297 108.461 177.969 104.281C177.344 102.191 175.449 100.746 173.281 100.688C173.262 100.668 173.145 100.707 173.125 100.688C166.152 94.3789 161.465 85.5508 160.312 75.6875C161.367 73.9297 161.25 71.7031 160 70.0625C160.508 48.3633 178.164 31 200 31ZM151.094 81C152.949 90.043 157.246 98.1875 163.281 104.75L99.0625 136.938C97.3633 127.797 93.2812 119.555 87.3438 112.875L151.094 81ZM50 106C59.2578 106 67.7734 109.047 74.5312 114.281C74.5898 114.32 74.6289 114.398 74.6875 114.438C74.7266 114.535 74.7852 114.652 74.8438 114.75C75.2734 115.277 75.8008 115.688 76.4062 116C76.4258 116.02 76.543 115.98 76.5625 116C84.043 122.641 88.9844 132.113 89.8438 142.719C89.2773 144.086 89.3359 145.629 90 146.938C89.9023 147.348 89.8438 147.758 89.8438 148.188C89.2383 159.281 84.1992 169.145 76.4062 176C75.9375 176.293 75.5078 176.664 75.1562 177.094C68.2812 182.66 59.5703 186 50 186C27.8516 186 10 168.148 10 146C10 123.852 27.8516 106 50 106ZM99.0625 155.062L163.281 187.25C157.246 193.812 152.949 201.957 151.094 211L87.3438 179.125C93.2812 172.445 97.3633 164.203 99.0625 155.062ZM200 181C222.148 181 240 198.852 240 221C240 243.148 222.148 261 200 261C177.852 261 160 243.148 160 221C160 208.969 165.234 198.168 173.594 190.844C173.711 190.746 173.809 190.648 173.906 190.531C173.926 190.512 174.043 190.551 174.062 190.531C174.863 190.199 175.566 189.652 176.094 188.969C182.773 183.988 190.996 181 200 181Z" fill="#783CFA"/>
</svg>
