<svg width="452" height="141" viewBox="0 0 452 141" fill="none" xmlns="http://www.w3.org/2000/svg">
<path d="M0 14H108.801V40.6323H89.5085V33.2927H41.3265L72.4925 70.5L41.3265 107.707H89.5091V100.368H108.802V127H0L47.3256 70.5L0 14Z" fill="#1775EE"/>
<path d="M164.262 90.0273C164.262 86.2773 162.934 83.3867 160.277 81.3555C157.66 79.3242 152.914 77.2734 146.039 75.2031C139.164 73.1328 133.695 70.8281 129.633 68.2891C121.859 63.4062 117.973 57.0391 117.973 49.1875C117.973 42.3125 120.766 36.6484 126.352 32.1953C131.977 27.7422 139.262 25.5156 148.207 25.5156C154.145 25.5156 159.438 26.6094 164.086 28.7969C168.734 30.9844 172.387 34.1094 175.043 38.1719C177.699 42.1953 179.027 46.668 179.027 51.5898H164.262C164.262 47.1367 162.855 43.6602 160.043 41.1602C157.27 38.6211 153.285 37.3516 148.09 37.3516C143.246 37.3516 139.477 38.3867 136.781 40.457C134.125 42.5273 132.797 45.418 132.797 49.1289C132.797 52.2539 134.242 54.8711 137.133 56.9805C140.023 59.0508 144.789 61.082 151.43 63.0742C158.07 65.0273 163.402 67.2734 167.426 69.8125C171.449 72.3125 174.398 75.2031 176.273 78.4844C178.148 81.7266 179.086 85.5352 179.086 89.9102C179.086 97.0195 176.352 102.684 170.883 106.902C165.453 111.082 158.07 113.172 148.734 113.172C142.562 113.172 136.879 112.039 131.684 109.773C126.527 107.469 122.504 104.305 119.613 100.281C116.762 96.2578 115.336 91.5703 115.336 86.2188H130.16C130.16 91.0625 131.762 94.8125 134.965 97.4688C138.168 100.125 142.758 101.453 148.734 101.453C153.891 101.453 157.758 100.418 160.336 98.3477C162.953 96.2383 164.262 93.4648 164.262 90.0273ZM205.863 112H191.625V48.6016H205.863V112ZM190.746 32.1367C190.746 29.9492 191.43 28.1328 192.797 26.6875C194.203 25.2422 196.195 24.5195 198.773 24.5195C201.352 24.5195 203.344 25.2422 204.75 26.6875C206.156 28.1328 206.859 29.9492 206.859 32.1367C206.859 34.2852 206.156 36.082 204.75 37.5273C203.344 38.9336 201.352 39.6367 198.773 39.6367C196.195 39.6367 194.203 38.9336 192.797 37.5273C191.43 36.082 190.746 34.2852 190.746 32.1367ZM218.93 79.832C218.93 69.9883 221.234 62.1367 225.844 56.2773C230.492 50.3789 236.645 47.4297 244.301 47.4297C251.527 47.4297 257.211 49.9492 261.352 54.9883L261.996 48.6016H274.828V110.066C274.828 118.387 272.23 124.949 267.035 129.754C261.879 134.559 254.906 136.961 246.117 136.961C241.469 136.961 236.918 135.984 232.465 134.031C228.051 132.117 224.691 129.598 222.387 126.473L229.125 117.918C233.5 123.113 238.891 125.711 245.297 125.711C250.023 125.711 253.754 124.422 256.488 121.844C259.223 119.305 260.59 115.555 260.59 110.594V106.316C256.488 110.887 251.02 113.172 244.184 113.172C236.762 113.172 230.688 110.223 225.961 104.324C221.273 98.4258 218.93 90.2617 218.93 79.832ZM233.109 81.0625C233.109 87.4297 234.398 92.4492 236.977 96.1211C239.594 99.7539 243.207 101.57 247.816 101.57C253.559 101.57 257.816 99.1094 260.59 94.1875V66.2969C257.895 61.4922 253.676 59.0898 247.934 59.0898C243.246 59.0898 239.594 60.9453 236.977 64.6562C234.398 68.3672 233.109 73.8359 233.109 81.0625ZM302.895 48.6016L303.305 55.2227C307.758 50.0273 313.852 47.4297 321.586 47.4297C330.062 47.4297 335.863 50.6719 338.988 57.1562C343.598 50.6719 350.082 47.4297 358.441 47.4297C365.434 47.4297 370.629 49.3633 374.027 53.2305C377.465 57.0977 379.223 62.8008 379.301 70.3398V112H365.062V70.75C365.062 66.7266 364.184 63.7773 362.426 61.9023C360.668 60.0273 357.758 59.0898 353.695 59.0898C350.453 59.0898 347.797 59.9688 345.727 61.7266C343.695 63.4453 342.27 65.7109 341.449 68.5234L341.508 112H327.27V70.2812C327.074 62.8203 323.266 59.0898 315.844 59.0898C310.141 59.0898 306.098 61.4141 303.715 66.0625V112H289.477V48.6016H302.895ZM431.801 112C431.176 110.789 430.629 108.816 430.16 106.082C425.629 110.809 420.082 113.172 413.52 113.172C407.152 113.172 401.957 111.355 397.934 107.723C393.91 104.09 391.898 99.5977 391.898 94.2461C391.898 87.4883 394.398 82.3125 399.398 78.7188C404.438 75.0859 411.625 73.2695 420.961 73.2695H429.691V69.1094C429.691 65.8281 428.773 63.2109 426.938 61.2578C425.102 59.2656 422.309 58.2695 418.559 58.2695C415.316 58.2695 412.66 59.0898 410.59 60.7305C408.52 62.332 407.484 64.3828 407.484 66.8828H393.246C393.246 63.4062 394.398 60.1641 396.703 57.1562C399.008 54.1094 402.133 51.7266 406.078 50.0078C410.062 48.2891 414.496 47.4297 419.379 47.4297C426.801 47.4297 432.719 49.3047 437.133 53.0547C441.547 56.7656 443.812 62 443.93 68.7578V97.3516C443.93 103.055 444.73 107.605 446.332 111.004V112H431.801ZM416.156 101.746C418.969 101.746 421.605 101.062 424.066 99.6953C426.566 98.3281 428.441 96.4922 429.691 94.1875V82.2344H422.016C416.742 82.2344 412.777 83.1523 410.121 84.9883C407.465 86.8242 406.137 89.4219 406.137 92.7812C406.137 95.5156 407.035 97.7031 408.832 99.3438C410.668 100.945 413.109 101.746 416.156 101.746Z" fill="#1775EE"/>
</svg>
